<svg width="223" height="65" viewBox="0 0 223 65" fill="none" xmlns="http://www.w3.org/2000/svg">
<path d="M35.2994 64.4576C35.9323 65.1808 37.0677 65.1808 37.7006 64.4576L70.2391 27.2784C71.1277 26.263 70.3974 24.686 69.0385 24.686H3.96153C2.60261 24.686 1.87227 26.263 2.76093 27.2784L35.2994 64.4576Z" fill="black"/>
<path d="M73 18.0247C73 27.9795 64.4739 36.0495 53.9565 36.0495C43.4391 36.0495 34.913 27.9795 34.913 18.0247C34.913 8.06995 43.4391 0 53.9565 0C64.4739 0 73 8.06995 73 18.0247Z" fill="black"/>
<path d="M38.087 18.0247C38.087 27.9795 29.5609 36.0495 19.0435 36.0495C8.52606 36.0495 0 27.9795 0 18.0247C0 8.06995 8.52606 0 19.0435 0C29.5609 0 38.087 8.06995 38.087 18.0247Z" fill="black"/>
<path d="M145 51.0714L131.286 65L81 13.9286L94.7143 1.04059e-06L145 51.0714Z" fill="black"/>
<path d="M134.091 1.31553C131.536 1.31553 130.301 1.78486 128.68 3.53708L129.529 2.67506L83.8143 49.1036L85.6615 47.2276C84.1081 48.8532 83.747 50.1103 83.747 52.5545C83.747 57.5407 87.7269 61.5828 92.6364 61.5828C95.1876 61.5828 96.8334 60.8242 98.4545 59.0759L140.636 16.8664C142.362 15.2196 142.98 12.9382 142.98 10.3438C142.98 5.35761 139 1.31553 134.091 1.31553Z" fill="black"/>
<path fill-rule="evenodd" clip-rule="evenodd" d="M213.81 0H155V58.8095C155 61.748 157.047 64.2083 159.793 64.8417L165.833 65L167.385 65L170.476 65L213.81 65C217.228 65 220 62.2284 220 58.8095V6.19048C220 2.77157 217.228 0 213.81 0ZM171.25 27.8571C175.096 27.8571 178.214 24.7391 178.214 20.8929C178.214 17.0466 175.096 13.9286 171.25 13.9286C167.404 13.9286 164.286 17.0466 164.286 20.8929C164.286 24.7391 167.404 27.8571 171.25 27.8571ZM202.202 27.8571C206.049 27.8571 209.167 24.7391 209.167 20.8929C209.167 17.0466 206.049 13.9286 202.202 13.9286C198.356 13.9286 195.238 17.0466 195.238 20.8929C195.238 24.7391 198.356 27.8571 202.202 27.8571Z" fill="black"/>
</svg>
