<svg width="113" height="174" viewBox="0 0 113 174" fill="none" xmlns="http://www.w3.org/2000/svg">
<path d="M-0.0098381 0.869564H10.0209V50.1739H22.2295V61.1304H-0.0098381V0.869564Z" fill="white"/>
<path d="M42.6024 16.2609C42.6024 13.3623 41.2826 11.913 38.6429 11.913C36.0472 11.913 34.7494 13.3623 34.7494 16.2609V45.7391C34.7494 48.6377 36.0472 50.087 38.6429 50.087C41.2826 50.087 42.6024 48.6377 42.6024 45.7391V16.2609ZM24.8506 15.5652C24.8506 10.8116 26.0165 7.04348 28.3482 4.26087C30.6799 1.42029 34.1115 0 38.6429 0C43.1744 0 46.606 1.42029 48.9377 4.26087C51.3134 7.04348 52.5013 10.8116 52.5013 15.5652V46.4348C52.5013 51.1884 51.3134 54.9855 48.9377 57.8261C46.606 60.6087 43.1744 62 38.6429 62C34.1115 62 30.6799 60.6087 28.3482 57.8261C26.0165 54.9855 24.8506 51.1884 24.8506 46.4348V15.5652Z" fill="white"/>
<path d="M76.2094 0.869564H86.5042L77.7932 61.1304H64.0009L55.1579 0.869564H65.2547C67.8064 20.058 69.2802 31.6522 69.6762 35.6522C70.0721 39.6522 70.5121 44.3768 70.996 49.8261C71.8319 39.4493 72.5578 31.6812 73.1738 26.5217L76.2094 0.869564Z" fill="white"/>
<path d="M89.827 0.869564H112.99V12.1739H99.7258V24.9565H111.208V36.2609H99.7258V49.8261H112.99V61.1304H89.827V0.869564Z" fill="white"/>
<path d="M13.1551 73.1587C13.1551 72.3968 13.005 71.8254 12.7046 71.4444C12.4377 71.0212 11.9037 70.8095 11.1028 70.8095H7.4987V98.8095H11.1028C12.471 98.8095 13.1551 97.836 13.1551 95.8889V73.1587ZM-0.0098381 63H12.154C14.8571 63 16.9428 63.8254 18.4111 65.4762C19.9128 67.127 20.6637 69.5608 20.6637 72.7778V96.6508C20.6637 103.55 17.9773 107 12.6045 107H-0.0098381V63Z" fill="white"/>
<path d="M24.6764 63H42.2464V71.254H32.185V80.5873H40.8949V88.8413H32.185V98.746H42.2464V107H24.6764V63Z" fill="white"/>
<path d="M60.5622 107L59.1105 96.8413H52.2527L50.9012 107H43.743L50.5508 63H61.0127L67.7203 107H60.5622ZM53.3039 88.7778H58.0093L55.6065 71.7619L53.3039 88.7778Z" fill="white"/>
<path d="M88.3567 63V71.254H82.0996V107H74.4909V71.254H68.2338V63H88.3567Z" fill="white"/>
<path d="M105.381 63H112.99V107H105.381V89.6032H98.4736V107H90.865V63H98.4736V81.0952H105.381V63Z" fill="white"/>
<path d="M61.4902 119.438V122.562H58.181V126H54.7993V122.562H51.4902V119.438H54.7993V116H58.181V119.438H61.4902Z" fill="white"/>
<path d="M6.17131 159.778V173.453H-0.0098381V135.547H9.30309C11.5558 135.547 13.314 136.258 14.5777 137.68C15.8414 139.102 16.4732 141.181 16.4732 143.916V150.917C16.4732 155.293 15.3469 158.028 13.0942 159.122L17.5858 173.453H10.7866L6.95425 159.778H6.17131ZM6.17131 142.548V153.269H8.60256C9.23441 153.269 9.67395 153.087 9.9212 152.722C10.1684 152.358 10.2921 151.719 10.2921 150.808V144.627C10.2921 143.825 10.1547 143.278 9.87999 142.986C9.60527 142.694 9.17946 142.548 8.60256 142.548H6.17131Z" fill="white"/>
<path d="M19.4575 144.791C19.4575 141.801 20.1855 139.431 21.6416 137.68C23.0976 135.893 25.2403 135 28.0699 135C30.8995 135 33.0423 135.893 34.4983 137.68C35.9818 139.431 36.7235 141.801 36.7235 144.791V164.209C36.7235 167.199 35.9818 169.588 34.4983 171.374C33.0423 173.125 30.8995 174 28.0699 174C25.2403 174 23.0976 173.125 21.6416 171.374C20.1855 169.588 19.4575 167.199 19.4575 164.209V144.791Z" fill="white"/>
<path d="M56.8023 144.244V147.799C56.8023 151.337 55.827 153.506 53.8765 154.309C55.9919 154.965 57.0495 157.153 57.0495 160.872V164.756C57.0495 170.554 54.7144 173.453 50.0442 173.453H40.0308V135.547H49.797C54.4672 135.547 56.8023 138.446 56.8023 144.244ZM48.7668 142.439H46.2119V150.698H48.7668C50.058 150.698 50.7035 149.914 50.7035 148.346V144.791C50.7035 143.223 50.058 142.439 48.7668 142.439ZM50.9508 164.209V160.325C50.9508 158.757 50.3052 157.973 49.014 157.973H46.2119V166.561H49.014C50.3052 166.561 50.9508 165.777 50.9508 164.209Z" fill="white"/>
<path d="M71.0257 145.229C71.0257 143.405 70.2015 142.494 68.5532 142.494C66.9324 142.494 66.122 143.405 66.122 145.229V163.771C66.122 165.595 66.9324 166.506 68.5532 166.506C70.2015 166.506 71.0257 165.595 71.0257 163.771V145.229ZM59.9408 144.791C59.9408 141.801 60.6688 139.431 62.1248 137.68C63.5808 135.893 65.7236 135 68.5532 135C71.3828 135 73.5256 135.893 74.9816 137.68C76.4651 139.431 77.2068 141.801 77.2068 144.791V164.209C77.2068 167.199 76.4651 169.588 74.9816 171.374C73.5256 173.125 71.3828 174 68.5532 174C65.7236 174 63.5808 173.125 62.1248 171.374C60.6688 169.588 59.9408 167.199 59.9408 164.209V144.791Z" fill="white"/>
<path d="M95.4312 135.547V142.658H90.2802V173.453H84.0167V142.658H78.8657V135.547H95.4312Z" fill="white"/>
<path d="M96.4659 144.408C96.4659 141.491 97.2076 139.248 98.6911 137.68C100.175 136.076 102.304 135.273 105.078 135.273C107.88 135.273 109.968 135.656 111.342 136.422V144.299C109.666 143.351 107.757 142.877 105.614 142.877C104.515 142.877 103.773 143.114 103.389 143.588C103.004 144.025 102.812 144.663 102.812 145.502V146.323C102.812 147.344 102.935 148.109 103.183 148.62C103.457 149.094 104.034 149.641 104.913 150.261L109.611 153.762C111.864 155.403 112.99 157.864 112.99 161.146V164.537C112.99 167.491 112.166 169.77 110.518 171.374C108.869 172.942 106.548 173.727 103.554 173.727C100.587 173.727 98.3477 173.307 96.8368 172.468V164.537C98.7049 165.595 100.82 166.123 103.183 166.123C105.545 166.123 106.727 165.23 106.727 163.443V162.623C106.727 161.784 106.589 161.164 106.315 160.763C106.067 160.325 105.587 159.851 104.872 159.341L100.463 156.168C97.7983 154.199 96.4659 151.428 96.4659 147.854V144.408Z" fill="white"/>
</svg>
