<svg width="43" height="47" viewBox="0 0 43 47" fill="none" xmlns="http://www.w3.org/2000/svg">
<path fill-rule="evenodd" clip-rule="evenodd" d="M9.31123 5.54535C10.0036 4.97061 10.4444 4.10346 10.4444 3.13333C10.4444 1.40284 9.0416 0 7.31111 0C5.58062 0 4.17778 1.40284 4.17778 3.13333C4.17778 3.21546 4.18094 3.29685 4.18714 3.37738C3.82306 3.22034 3.42169 3.13333 3 3.13333C1.34315 3.13333 0 4.47648 0 6.13333C0 7.79019 1.34315 9.13333 3 9.13333C3.72756 9.13333 4.39463 8.87434 4.91404 8.44351L9.01021 13.187C7.28357 15.5019 6.26667 18.342 6.26667 21.4111C6.26667 25.4788 8.05295 29.1442 10.9104 31.7177L5.21226 38.3164C4.68844 37.8697 4.00904 37.6 3.26667 37.6C1.60981 37.6 0.266666 38.9431 0.266666 40.6C0.266666 42.2569 1.60981 43.6 3.26667 43.6C3.69415 43.6 4.10074 43.5106 4.46878 43.3494C4.45272 43.4751 4.44444 43.6033 4.44444 43.7333C4.44444 45.3902 5.78759 46.7333 7.44444 46.7333C9.1013 46.7333 10.4444 45.3902 10.4444 43.7333C10.4444 42.8233 10.0392 42.0079 9.39941 41.4577L13.8925 36.2545C15.3293 37.4549 17.7674 38.2444 20.5333 38.2444C24.0074 38.2444 26.9642 36.9988 28.0694 35.2583L33.4228 41.4577C32.783 42.0079 32.3778 42.8233 32.3778 43.7333C32.3778 45.3902 33.7209 46.7333 35.3778 46.7333C37.0346 46.7333 38.3778 45.3902 38.3778 43.7333C38.3778 43.6033 38.3695 43.4751 38.3534 43.3494C38.7215 43.5106 39.1281 43.6 39.5556 43.6C41.2124 43.6 42.5556 42.2569 42.5556 40.6C42.5556 38.9431 41.2124 37.6 39.5556 37.6C38.8132 37.6 38.1338 37.8697 37.61 38.3164L31.4408 31.1722C33.9618 28.6388 35.5111 25.1994 35.5111 21.4111C35.5111 18.6308 34.6766 16.0384 33.2359 13.8542L37.9082 8.44351C38.4276 8.87434 39.0947 9.13333 39.8222 9.13333C41.4791 9.13333 42.8222 7.79019 42.8222 6.13333C42.8222 4.47648 41.4791 3.13333 39.8222 3.13333C39.4005 3.13333 38.9992 3.22034 38.6351 3.37738C38.6413 3.29685 38.6444 3.21546 38.6444 3.13333C38.6444 1.40284 37.2416 0 35.5111 0C33.7806 0 32.3778 1.40284 32.3778 3.13333C32.3778 4.10346 32.8187 4.97061 33.511 5.54535L29.5942 10.0811C27.1621 8.34067 24.1502 7.31111 20.8889 7.31111C17.9165 7.31111 15.1512 8.16636 12.8433 9.63558L9.31123 5.54535ZM6.02831 5.99289L5.99787 6.01918L5.99606 5.97818L6.02831 5.99289ZM36.7939 5.99289L36.8244 6.01918L36.8262 5.97818L36.7939 5.99289ZM29.2444 22.9778C29.2444 24.7083 27.8416 26.1111 26.1111 26.1111C24.3806 26.1111 22.9778 24.7083 22.9778 22.9778C22.9778 21.2473 24.3806 19.8444 26.1111 19.8444C27.8416 19.8444 29.2444 21.2473 29.2444 22.9778ZM15.6667 26.1111C17.3972 26.1111 18.8 24.7083 18.8 22.9778C18.8 21.2473 17.3972 19.8444 15.6667 19.8444C13.9362 19.8444 12.5333 21.2473 12.5333 22.9778C12.5333 24.7083 13.9362 26.1111 15.6667 26.1111Z" fill="white"/>
</svg>
