<svg width="15" height="14" viewBox="0 0 15 14" fill="none" xmlns="http://www.w3.org/2000/svg">
<g clip-path="url(#clip0_2796_1697)">
<path d="M13.34 12.0963L1.67 8.0263C1.47959 7.95986 1.31371 7.83741 1.19414 7.67501C1.07457 7.51261 1.00689 7.31785 1 7.1163V6.0263C1.00082 5.81958 1.06569 5.6182 1.18567 5.44986C1.30566 5.28153 1.47486 5.15451 1.67 5.0863L13.34 1.0263C13.4149 1.00099 13.4948 0.993812 13.573 1.00536C13.6513 1.0169 13.7256 1.04684 13.79 1.09272C13.8545 1.13859 13.9071 1.19909 13.9436 1.26925C13.9801 1.3394 13.9994 1.41722 14 1.4963V11.6263C13.9994 11.7054 13.9801 11.7832 13.9436 11.8533C13.9071 11.9235 13.8545 11.984 13.79 12.0299C13.7256 12.0757 13.6513 12.1057 13.573 12.1172C13.4948 12.1288 13.4149 12.1216 13.34 12.0963Z" stroke="#000001" stroke-linecap="round" stroke-linejoin="round"/>
<path d="M8.98 10.5963C8.89581 11.2909 8.55 11.9273 8.013 12.3759C7.476 12.8245 6.78819 13.0515 6.08967 13.0107C5.39114 12.9699 4.73444 12.6644 4.2533 12.1564C3.77216 11.6483 3.50277 10.976 3.5 10.2763V8.68628" stroke="#000001" stroke-linecap="round" stroke-linejoin="round"/>
</g>
<defs>
<clipPath id="clip0_2796_1697">
<rect width="15" height="14" fill="white"/>
</clipPath>
</defs>
</svg>
